<?xml version="1.0" encoding="UTF-8" standalone="no"?>
<svg
   xmlns:dc="http://purl.org/dc/elements/1.1/"
   xmlns:cc="http://creativecommons.org/ns#"
   xmlns:rdf="http://www.w3.org/1999/02/22-rdf-syntax-ns#"
   xmlns:svg="http://www.w3.org/2000/svg"
   xmlns="http://www.w3.org/2000/svg"
   xmlns:xlink="http://www.w3.org/1999/xlink"
   xmlns:sodipodi="http://sodipodi.sourceforge.net/DTD/sodipodi-0.dtd"
   xmlns:inkscape="http://www.inkscape.org/namespaces/inkscape"
   id="Layer_1"
   data-name="Layer 1"
   viewBox="0 0 734.82001 848.51001"
   version="1.1"
   sodipodi:docname="rpostgis.svg"
   inkscape:version="0.92.1 r15371"
   width="734.82001"
   height="848.51001"
   inkscape:export-filename="/home/mathieu/.R-site/packages/rpostgis/logo/rpostgis-1024-white.png"
   inkscape:export-xdpi="133.78"
   inkscape:export-ydpi="133.78">
  <metadata
     id="metadata151">
    <rdf:RDF>
      <cc:Work
         rdf:about="">
        <dc:format>image/svg+xml</dc:format>
        <dc:type
           rdf:resource="http://purl.org/dc/dcmitype/StillImage" />
        <dc:title>ggplot2</dc:title>
      </cc:Work>
    </rdf:RDF>
  </metadata>
  <sodipodi:namedview
     pagecolor="#ffffff"
     bordercolor="#666666"
     borderopacity="1"
     objecttolerance="10"
     gridtolerance="10"
     guidetolerance="10"
     inkscape:pageopacity="0"
     inkscape:pageshadow="2"
     inkscape:window-width="640"
     inkscape:window-height="480"
     id="namedview149"
     showgrid="false"
     inkscape:zoom="1.6228447"
     inkscape:cx="474.9427"
     inkscape:cy="378.20205"
     inkscape:current-layer="layer2"
     fit-margin-top="0"
     fit-margin-left="0"
     fit-margin-right="0"
     fit-margin-bottom="0" />
  <defs
     id="defs4">
    <marker
       inkscape:stockid="Arrow2Sstart"
       orient="auto"
       refY="0"
       refX="0"
       id="marker7006"
       style="overflow:visible"
       inkscape:isstock="true">
      <path
         id="path7004"
         style="fill:#000000;fill-opacity:1;fill-rule:evenodd;stroke:#000000;stroke-width:0.625;stroke-linejoin:round;stroke-opacity:1"
         d="M 8.7185878,4.0337352 -2.2072895,0.01601326 8.7185884,-4.0017078 c -1.7454984,2.3720609 -1.7354408,5.6174519 -6e-7,8.035443 z"
         transform="matrix(0.3,0,0,0.3,-0.69,0)"
         inkscape:connector-curvature="0" />
    </marker>
    <marker
       inkscape:stockid="Arrow2Sstart"
       orient="auto"
       refY="0"
       refX="0"
       id="marker6970"
       style="overflow:visible"
       inkscape:isstock="true">
      <path
         id="path6968"
         style="fill:#000000;fill-opacity:1;fill-rule:evenodd;stroke:#000000;stroke-width:0.625;stroke-linejoin:round;stroke-opacity:1"
         d="M 8.7185878,4.0337352 -2.2072895,0.01601326 8.7185884,-4.0017078 c -1.7454984,2.3720609 -1.7354408,5.6174519 -6e-7,8.035443 z"
         transform="matrix(0.3,0,0,0.3,-0.69,0)"
         inkscape:connector-curvature="0" />
    </marker>
    <marker
       inkscape:stockid="Arrow2Mstart"
       orient="auto"
       refY="0"
       refX="0"
       id="Arrow2Mstart"
       style="overflow:visible"
       inkscape:isstock="true">
      <path
         id="path4691"
         style="fill:#000000;fill-opacity:1;fill-rule:evenodd;stroke:#000000;stroke-width:0.625;stroke-linejoin:round;stroke-opacity:1"
         d="M 8.7185878,4.0337352 -2.2072895,0.01601326 8.7185884,-4.0017078 c -1.7454984,2.3720609 -1.7354408,5.6174519 -6e-7,8.035443 z"
         transform="scale(0.6)"
         inkscape:connector-curvature="0" />
    </marker>
    <marker
       inkscape:stockid="Arrow1Lstart"
       orient="auto"
       refY="0"
       refX="0"
       id="Arrow1Lstart"
       style="overflow:visible"
       inkscape:isstock="true">
      <path
         id="path4667"
         d="M 0,0 5,-5 -12.5,0 5,5 Z"
         style="fill:#000000;fill-opacity:1;fill-rule:evenodd;stroke:#000000;stroke-width:1.00000003pt;stroke-opacity:1"
         transform="matrix(0.8,0,0,0.8,10,0)"
         inkscape:connector-curvature="0" />
    </marker>
    <style
       id="style2">.cls-1{fill:#f2f2f2;}.cls-2{fill:#fff;}.cls-3{fill:#e6b35a;}.cls-4{fill:#424242;}.cls-5{fill:#51a7f9;}.cls-6{fill:#a8d6ff;}.cls-7{fill:#0365c0;}.cls-8{fill:#164f86;}.cls-9{fill:#002452;}.cls-10{fill:#000643;}</style>
    <linearGradient
       spreadMethod="pad"
       gradientUnits="userSpaceOnUse"
       y2="593.78698"
       y1="3.6658269"
       x2="590.86259"
       x1="0.74144253"
       id="gradientFill-1"
       gradientTransform="scale(1.2219423,0.81836924)">
      <stop
         id="stop4617"
         stop-opacity="1"
         stop-color="rgb(203,206,208)"
         offset="0" />
      <stop
         id="stop4619"
         stop-opacity="1"
         stop-color="rgb(132,131,139)"
         offset="1" />
    </linearGradient>
    <linearGradient
       spreadMethod="pad"
       gradientUnits="userSpaceOnUse"
       y2="553.44209"
       y1="151.40061"
       x2="703.06751"
       x1="301.02603"
       id="gradientFill-2"
       gradientTransform="scale(0.9899476,1.0101545)">
      <stop
         id="stop4622"
         stop-opacity="1"
         stop-color="rgb(39,109,195)"
         offset="0" />
      <stop
         id="stop4624"
         stop-opacity="1"
         stop-color="rgb(22,92,170)"
         offset="1" />
    </linearGradient>
    <linearGradient
       spreadMethod="pad"
       gradientUnits="userSpaceOnUse"
       y2="593.78698"
       y1="3.6658269"
       x2="590.86259"
       x1="0.74144253"
       id="gradientFill-1-8"
       gradientTransform="scale(1.2219423,0.81836924)">
      <stop
         id="stop4699"
         stop-opacity="1"
         stop-color="rgb(203,206,208)"
         offset="0" />
      <stop
         id="stop4701"
         stop-opacity="1"
         stop-color="rgb(132,131,139)"
         offset="1" />
    </linearGradient>
    <linearGradient
       spreadMethod="pad"
       gradientUnits="userSpaceOnUse"
       y2="553.44209"
       y1="151.40061"
       x2="703.06751"
       x1="301.02603"
       id="gradientFill-2-0"
       gradientTransform="scale(0.9899476,1.0101545)">
      <stop
         id="stop4704"
         stop-opacity="1"
         stop-color="rgb(39,109,195)"
         offset="0" />
      <stop
         id="stop4706"
         stop-opacity="1"
         stop-color="rgb(22,92,170)"
         offset="1" />
    </linearGradient>
    <mask
       maskUnits="userSpaceOnUse"
       id="mask4669">
      <path
         style="display:inline;fill:#ffffff;fill-opacity:1"
         d="M 705.52,195.21 C 592.81665,130.14003 480.11366,65.069436 367.41,0 244.94052,70.710906 122.46574,141.41262 0,212.13 0,353.54667 0,494.96333 0,636.38 122.46444,707.09963 244.94759,777.78685 367.41,848.51 489.87285,777.78761 612.35411,707.09712 734.82,636.38 c 0,-141.41667 0,-282.83333 0,-424.25 -9.76667,-5.64 -19.53333,-11.28 -29.3,-16.92 z"
         id="path4671"
         inkscape:connector-curvature="0" />
    </mask>
  </defs>
  <title
     id="title6">ggplot2</title>
  <g
     inkscape:groupmode="layer"
     id="layer2"
     inkscape:label="background"
     style="display:inline">
    <path
       class="cls-4"
       d="M 705.52,195.21 427.72,34.82 367.41,0 307.1,34.82 29.28,195.22 0,212.13 v 424.25 l 29.28,16.91 281.28,162.39 56.85,32.83 56.85,-32.83 281.26,-162.38 29.3,-16.92 V 212.13 Z"
       id="path4573"
       inkscape:connector-curvature="0"
       style="fill:#ffffff;fill-opacity:1"
       sodipodi:nodetypes="ccccccccccccccc" />
    <path
       class="cls-4"
       d="M 705.52,195.21 427.72,34.82 367.41,0 307.1,34.82 29.28,195.22 0,212.13 v 424.25 l 29.28,16.91 281.28,162.39 56.85,32.83 56.85,-32.83 281.26,-162.38 29.3,-16.92 V 212.13 Z"
       id="path102"
       inkscape:connector-curvature="0"
       style="display:inline;fill:#ffffff;fill-opacity:1"
       sodipodi:nodetypes="ccccccccccccccc" />
  </g>
  <g
     inkscape:groupmode="layer"
     id="layer1"
     inkscape:label="logo"
     style="display:inline">
    <image
       sodipodi:absref="/home/mathieu/.R-site/packages/rpostgis/man/figures/postgis-logo-body.png"
       xlink:href="postgis-logo-body.png"
       mask="url(#mask4669)"
       width="421.33334"
       height="310.66666"
       preserveAspectRatio="none"
       style="image-rendering:optimizeQuality"
       id="image4555"
       x="302.93762"
       y="671.92303" />
    <path
       style="fill:#949494;fill-opacity:1"
       d="M 367.41016 0 L 0 212.13086 L 0 636.38086 L 367.41016 848.50977 L 734.82031 636.38086 L 734.82031 212.13086 C 612.35351 141.41531 489.88066 70.709136 367.41016 0 z M 367.40039 46.503906 L 695.39648 235.87695 L 695.39648 614.58398 L 367.41016 803.95703 L 39.423828 614.58398 L 39.423828 235.82812 L 367.40039 46.503906 z "
       id="path4527" />
    <g
       id="g4729"
       transform="matrix(0.56594853,0,0,0.56594853,127.04993,134.21077)"
       style="stroke-width:1.76694512">
      <path
         style="fill:url(#gradientFill-1-8);fill-rule:evenodd;stroke-width:1.76694512"
         id="path4711"
         d="M 361.453,485.937 C 162.329,485.937 0.906,377.828 0.906,244.469 0.906,111.109 162.329,3 361.453,3 560.578,3 722,111.109 722,244.469 722,377.828 560.578,485.937 361.453,485.937 Z M 416.641,97.406 c -151.352,0 -274.047,73.908 -274.047,165.078 0,91.17 122.695,165.078 274.047,165.078 151.351,0 263.046,-50.529 263.046,-165.078 0,-114.513 -111.695,-165.078 -263.046,-165.078 z"
         inkscape:connector-curvature="0" />
      <path
         style="fill:url(#gradientFill-2-0);fill-rule:evenodd;stroke-width:1.76694512"
         id="path4713"
         d="m 550,377 c 0,0 21.822,6.585 34.5,13 4.399,2.226 12.01,6.668 17.5,12.5 5.378,5.712 8,11.5 8,11.5 L 696,559 557,559.062 492,437 c 0,0 -13.31,-22.869 -21.5,-29.5 -6.832,-5.531 -9.745,-7.5 -16.5,-7.5 -4.702,0 -33.026,0 -33.026,0 L 421,558.974 298,559.026 V 152.938 h 247 c 0,0 112.5,2.029 112.5,109.062 0,107.033 -107.5,115 -107.5,115 z m -53.5,-135.976 -74.463,-0.048 -0.037,69.05 74.5,-0.024 c 0,0 34.5,-0.107 34.5,-35.125 0,-35.722 -34.5,-33.853 -34.5,-33.853 z"
         inkscape:connector-curvature="0" />
    </g>
    <image
       sodipodi:absref="/home/mathieu/.R-site/packages/rpostgis/man/figures/postgis-logo-head2.png"
       xlink:href="postgis-logo-head2.png"
       y="387.54953"
       x="160.62848"
       id="image4696"
       style="stroke-width:0.97247255;image-rendering:optimizeQuality"
       preserveAspectRatio="none"
       height="366.07715"
       width="442.85736" />
  </g>
</svg>
